<?xml version="1.0" encoding="UTF-8"?>
<svg width="117px" height="59px" viewBox="0 0 117 59" version="1.1" xmlns="http://www.w3.org/2000/svg" xmlns:xlink="http://www.w3.org/1999/xlink">
    <title>Group</title>
    <g id="PR" stroke="none" stroke-width="1" fill="none" fill-rule="evenodd">
        <g id="0---Loading..." transform="translate(-122.000000, -261.000000)" fill="#FFFFFF">
            <g id="Group" transform="translate(122.000000, 261.000000)">
                <g id="Group-6" transform="translate(0.000000, 40.000000)" fill-rule="nonzero">
                    <path d="M38.2929032,8.512 L30.756129,8.512 L30.756129,10.4272 C30.756129,11.0371 31.2776129,11.533 31.9170968,11.533 L36.1156129,11.533 L36.1156129,12.5229 C35.5541613,13.6496 33.7784516,15.4717 30.4649355,15.4717 C26.7821935,15.4717 24.2109355,13.0017 24.2109355,9.462 C24.2109355,5.9375 26.7289032,3.4751 30.3355161,3.4751 C32.4252581,3.4751 34.3627419,4.4099 35.3904839,5.9223 L35.5446452,6.1522 L39.2787742,5.2117 L39.0313548,4.7861 C37.2575484,1.8012 34.0886774,0.0551 30.3336129,0.0038 C27.6481613,0.0038 25.1549355,0.9538 23.3126129,2.6752 C21.4379355,4.4308 20.4044839,6.8362 20.4044839,9.4601 C20.4044839,12.0821 21.4379355,14.4875 23.3126129,16.2355 C25.1568387,17.9607 27.6481613,18.9164 30.3336129,18.9164 C30.4116452,18.9164 30.4896774,18.9145 30.5543871,18.9145 C30.5848387,18.9145 30.6152903,18.9088 30.638129,18.9088 L30.6571613,18.9088 C30.697129,18.9069 30.7370968,18.9069 30.7770645,18.9031 C33.0038387,18.8176 35.063129,18.0804 36.7284516,16.7751 C37.8646774,15.8878 38.7496774,14.7915 39.3587097,13.5128 L39.3948765,13.4425 L39.3948765,9.6121 C39.3967742,9.0231 38.9114516,8.5405 38.2929032,8.512 Z" id="Path"></path>
                    <path d="M68.0783871,0.0019 C65.3967419,0.0019 62.8997097,0.9519 61.0554839,2.6733 C59.1827097,4.4289 58.1511613,6.8343 58.1511613,9.4582 C58.1511613,12.0802 59.1827097,14.4856 61.0554839,16.2336 C62.8997097,17.9588 65.3967419,18.9145 68.0783871,18.9145 C70.7695484,18.9145 73.2684839,17.9588 75.1184194,16.2336 C76.9988065,14.4837 78.0341613,12.0764 78.0341613,9.4582 C78.0341613,6.8343 77.0007097,4.4289 75.1184194,2.6733 C73.2665806,0.9519 70.7695484,0.0019 68.0783871,0.0019 Z M68.0783871,15.447 C64.4774839,15.447 61.9595161,12.9846 61.9595161,9.4601 C61.9595161,5.9356 64.4774839,3.4732 68.0783871,3.4732 C71.702129,3.4732 74.2315161,5.9356 74.2315161,9.4601 C74.2315161,12.9846 71.7002258,15.447 68.0783871,15.447 Z" id="Shape"></path>
                    <path d="M78.1940323,1.4573 L78.1940323,3.6974 L84.1035484,3.6974 L84.1035484,18.5649 L87.8053226,18.5649 L87.8053226,3.6974 L92.6071613,3.6974 C93.2485484,3.6974 93.7662258,3.2034 93.7662258,2.5935 L93.7662258,0.3553 L79.3530968,0.3553 C78.7136129,0.3553 78.1940323,0.8417 78.1940323,1.4573 Z" id="Path"></path>
                    <path d="M95.7665161,1.4573 L95.7665161,18.5649 L98.3073226,18.5649 C98.9449032,18.5649 99.4682903,18.069 99.4682903,17.461 L99.4682903,0.3553 L96.9255806,0.3553 C96.2841935,0.3553 95.7665161,0.8417 95.7665161,1.4573 Z" id="Path"></path>
                    <path d="M110.516516,7.6779 C110.293839,7.6133 110.073065,7.5449 109.854194,7.4803 C107.840581,6.8704 106.110548,6.3441 106.110548,5.1661 C106.110548,3.6746 107.713065,3.1445 109.209,3.1445 C111.087484,3.1445 112.533935,4.2199 112.895548,5.89 L112.97929,6.2833 L115.487742,5.6278 C115.954032,5.4701 116.266161,5.0559 116.266161,4.5866 C116.266161,4.4631 116.247129,4.3453 116.203355,4.2294 C116.197645,4.2161 116.195742,4.2047 116.188129,4.1876 C116.184323,4.1743 116.17671,4.1572 116.167194,4.142 C115.139452,1.6302 112.450194,-2.84217094e-14 109.317484,-2.84217094e-14 C105.345452,-2.84217094e-14 102.353581,2.2629 102.353581,5.2649 C102.353581,8.6203 105.644258,9.6767 107.614097,10.3132 C107.909097,10.4044 108.207903,10.488 108.510516,10.5792 C110.771548,11.2518 112.912677,11.8883 112.912677,13.4463 C112.912677,14.7554 111.553774,15.6712 109.604871,15.6712 C107.050742,15.6712 105.634742,14.0619 105.396839,12.5685 L105.330226,12.1524 L102.66571,12.8478 C102.237484,12.9884 101.974839,13.414 101.974839,13.8567 C101.974839,14.0771 102.06429,14.2842 102.06429,14.2842 C103.183387,17.1817 105.941161,18.9145 109.45071,18.9145 C113.715839,18.9145 116.69629,16.6136 116.69629,13.3247 C116.694387,9.5589 113.123935,8.474 110.516516,7.6779 Z" id="Path"></path>
                    <path d="M11.8532903,0.3553 L9.42096774,0.3553 L-1.77635684e-15,18.5649 L3.38012903,18.5649 C3.82167742,18.5649 4.23467742,18.3198 4.425,17.9379 L5.87716129,15.1088 C5.94187097,14.991 6.0693871,14.9226 6.20641935,14.9226 L15.0697419,14.9226 C15.1782258,14.9226 15.281,14.9625 15.3514194,15.0423 L16.8816129,18.0044 C17.0890645,18.3483 17.4773226,18.5649 17.894129,18.5649 L21.2780645,18.5649 L11.9617742,0.5643 L11.8532903,0.3553 Z M10.637129,5.814 L13.5814194,11.5805 L7.69283871,11.5805 L10.637129,5.814 Z" id="Shape"></path>
                    <path d="M56.3659355,6.3403 C56.3659355,2.6486 53.5072903,0.3553 48.9052903,0.3553 L43.6561935,0.3553 C43.0167097,0.3553 42.497129,0.8436 42.497129,1.4573 L42.497129,17.461 C42.497129,18.069 43.0167097,18.5649 43.6561935,18.5649 L46.197,18.5649 L46.197,3.6974 L49.2459677,3.6974 C51.3490323,3.6974 52.5594839,4.6607 52.5594839,6.3422 C52.5594839,8.0237 51.3509355,8.987 49.2459677,8.987 L47.005871,8.987 L52.9039677,18.0253 C52.9115806,18.0386 52.9210968,18.05 52.9268065,18.0614 C53.141871,18.3768 53.5091935,18.5687 53.9069677,18.5687 L57.4469677,18.5687 L52.8735161,11.6071 C55.1326452,10.6248 56.3659355,8.7761 56.3659355,6.3403 Z" id="Path"></path>
                </g>
                <g id="Shape-2" transform="translate(34.000000, 0.000000)">
                    <path d="M42.6229335,20.7390311 L29.3536562,20.7390311 C28.9266034,20.7390311 28.576152,20.9217454 28.4267792,21.1871619 C28.4210341,21.1987018 28.417204,21.2121649 28.4095439,21.2275514 L26.6936726,24.714509 L26.6170712,24.8606804 C26.4581233,25.1049405 26.1306523,25.2780382 25.7227498,25.2780382 L3.89901122,25.270345 L6.20088326,21.3006371 C6.20662837,21.2871739 6.21237347,21.2660176 6.22386368,21.2544777 C6.37132137,20.9852146 6.71794271,20.7967304 7.14691054,20.7967304 L22.0363075,20.7274913 C22.0688631,20.7294146 22.1033337,20.7294146 22.1378044,20.7294146 C22.17419,20.7294146 22.2067456,20.7294146 22.2393012,20.7274913 C22.6184781,20.700565 22.9172236,20.5236206 23.0608512,20.2774372 C23.0608512,20.2774372 23.0627662,20.2774372 23.0627662,20.2774372 L23.0953218,20.2101214 C23.0972369,20.2024282 23.0972369,20.1985816 23.0972369,20.1985816 L24.7920428,16.76163 C24.8054481,16.7423969 24.8111932,16.7250871 24.8207684,16.7097007 C24.9720561,16.4423609 25.3167624,16.2577233 25.7438152,16.2577233 L39.2467269,16.2634932 C39.6871849,16.2634932 40.0931723,16.4423609 40.3612772,16.7750932 C40.3651073,16.7827864 40.3689374,16.7885563 40.3727674,16.7885563 L42.6229335,20.7390311 L42.6229335,20.7390311 Z M49,32 L44.1721968,23.4451256 L44.1128307,23.3701166 C44.1128307,23.36627 44.1109157,23.3643467 44.1109157,23.3643467 C43.8753664,23.0950835 43.4751241,22.9162159 43.0480713,22.9162159 L31.0886778,22.9123693 C30.6654551,22.9123693 30.3264939,23.085467 30.1713761,23.3528068 L30.1273303,23.4432023 L28.4018838,26.9455463 C28.3923086,26.9609328 28.3846485,26.974396 28.3769883,26.9917057 C28.2257006,27.2609689 27.8790792,27.4475298 27.4520264,27.4475298 L3.27087974,27.4456064 C2.92425841,27.4456064 2.58338219,27.5456185 2.33825771,27.9514365 L0,31.9961534 L49,32 L49,32 Z M34.2523156,6.13150619 L19.8110369,6.12573627 C19.4433501,6.12573627 19.1446047,6.31037384 19.0162973,6.57963698 C19.0067222,6.59694675 19.0009771,6.61233321 18.997147,6.6334896 L16.9844452,11.3648275 C16.9806152,11.3782907 16.97104,11.3975237 16.9672099,11.4090636 C16.8369875,11.6821733 16.5401571,11.8629643 16.1705554,11.8629643 L11.7468246,11.8629643 L18.1794271,0.530833033 C18.3039043,0.186560885 18.6332903,0 19.0067222,0 L30.1560558,0 C30.5218275,0 30.8646188,0.184637577 31.0656974,0.450054093 L31.0695275,0.451977401 C31.0791027,0.467363866 31.1193184,0.5231398 31.1212334,0.530833033 L34.2523156,6.13150619 L34.2523156,6.13150619 Z M38.8445695,14.0901551 L35.8283894,8.7952879 C35.8168992,8.77990143 35.807324,8.76259166 35.7939188,8.75105181 C35.587095,8.47986537 35.2251534,8.29522779 34.8402314,8.29522779 L21.2760386,8.29522779 C20.8892015,8.29522779 20.5808809,8.47794206 20.4449134,8.75105181 C20.4353383,8.76451497 20.4276781,8.78182474 20.421933,8.7952879 L18.3632704,13.4516168 C18.3460351,13.5266258 18.3134795,13.5939416 18.2751788,13.6554874 C18.1353812,13.8728213 17.8634463,14.0228393 17.5398054,14.0363024 C17.5225701,14.0363024 17.5034197,14.0363024 17.4880994,14.0363024 C17.4708641,14.0363024 17.4536288,14.0363024 17.4363935,14.0363024 L10.9444249,14.0363024 C10.6016336,14.0324558 10.2856529,14.2132468 10.1018095,14.5286693 L7.85355845,18.415675 L20.858561,18.5483832 C21.132411,18.515687 21.3583851,18.3829787 21.4924376,18.1944945 L21.6054246,17.9348479 L23.0780865,14.6113716 C23.0780865,14.6075249 23.0780865,14.6056016 23.0819166,14.6056016 C23.0895767,14.5786753 23.0991519,14.5594422 23.1106421,14.5363625 C23.1106421,14.5344392 23.1125572,14.5305926 23.1144722,14.5305926 C23.2504397,14.2613295 23.5587603,14.0882318 23.9398523,14.0882318 L38.8445695,14.0882318 L38.8445695,14.0901551 Z" id="Shape"></path>
                </g>
            </g>
        </g>
    </g>
</svg>