<?xml version="1.0" encoding="UTF-8"?>
<svg width="91px" height="17px" viewBox="0 0 91 17" version="1.1" xmlns="http://www.w3.org/2000/svg" xmlns:xlink="http://www.w3.org/1999/xlink">
    <title>logo/Completa cor</title>
    <g id="PR" stroke="none" stroke-width="1" fill="none" fill-rule="evenodd">
        <g id="Home" transform="translate(-135.000000, -23.000000)">
            <g id="Group" transform="translate(135.000000, 23.000000)">
                <g transform="translate(29.000000, 3.000000)" fill="#333D47" fill-rule="nonzero">
                    <path d="M20.725,4.955 L16.765,4.955 L16.765,5.963 C16.765,6.284 17.039,6.545 17.375,6.545 L19.581,6.545 L19.581,7.066 C19.286,7.659 18.353,8.618 16.612,8.618 C14.677,8.618 13.326,7.318 13.326,5.455 C13.326,3.6 14.649,2.304 16.544,2.304 C17.642,2.304 18.66,2.796 19.2,3.592 L19.281,3.713 L21.243,3.218 L21.113,2.994 C20.181,1.423 18.516,0.504 16.543,0.477 C15.132,0.477 13.822,0.977 12.854,1.883 C11.869,2.807 11.326,4.073 11.326,5.454 C11.326,6.834 11.869,8.1 12.854,9.02 C13.823,9.928 15.132,10.431 16.543,10.431 C16.584,10.431 16.625,10.43 16.659,10.43 C16.675,10.43 16.691,10.427 16.703,10.427 L16.713,10.427 C16.734,10.426 16.755,10.426 16.776,10.424 C17.946,10.379 19.028,9.991 19.903,9.304 C20.5,8.837 20.965,8.26 21.285,7.587 L21.3040029,7.55 L21.3040029,5.534 C21.305,5.224 21.05,4.97 20.725,4.955 Z" id="Path"></path>
                    <path d="M36.375,0.476 C34.966,0.476 33.654,0.976 32.685,1.882 C31.701,2.806 31.159,4.072 31.159,5.453 C31.159,6.833 31.701,8.099 32.685,9.019 C33.654,9.927 34.966,10.43 36.375,10.43 C37.789,10.43 39.102,9.927 40.074,9.019 C41.062,8.098 41.606,6.831 41.606,5.453 C41.606,4.072 41.063,2.806 40.074,1.882 C39.101,0.976 37.789,0.476 36.375,0.476 Z M36.375,8.605 C34.483,8.605 33.16,7.309 33.16,5.454 C33.16,3.599 34.483,2.303 36.375,2.303 C38.279,2.303 39.608,3.599 39.608,5.454 C39.608,7.309 38.278,8.605 36.375,8.605 Z" id="Shape"></path>
                    <path d="M41.69,1.242 L41.69,2.421 L44.795,2.421 L44.795,10.246 L46.74,10.246 L46.74,2.421 L49.263,2.421 C49.6,2.421 49.872,2.161 49.872,1.84 L49.872,0.662 L42.299,0.662 C41.963,0.662 41.69,0.918 41.69,1.242 Z" id="Path"></path>
                    <path d="M50.923,1.242 L50.923,10.246 L52.258,10.246 C52.593,10.246 52.868,9.985 52.868,9.665 L52.868,0.662 L51.532,0.662 C51.195,0.662 50.923,0.918 50.923,1.242 Z" id="Path"></path>
                    <path d="M58.673,4.516 C58.556,4.482 58.44,4.446 58.325,4.412 C57.267,4.091 56.358,3.814 56.358,3.194 C56.358,2.409 57.2,2.13 57.986,2.13 C58.973,2.13 59.733,2.696 59.923,3.575 L59.967,3.782 L61.285,3.437 C61.53,3.354 61.694,3.136 61.694,2.889 C61.694,2.824 61.684,2.762 61.661,2.701 C61.658,2.694 61.657,2.688 61.653,2.679 C61.651,2.672 61.647,2.663 61.642,2.655 C61.102,1.333 59.689,0.475 58.043,0.475 C55.956,0.475 54.384,1.666 54.384,3.246 C54.384,5.012 56.113,5.568 57.148,5.903 C57.303,5.951 57.46,5.995 57.619,6.043 C58.807,6.397 59.932,6.732 59.932,7.552 C59.932,8.241 59.218,8.723 58.194,8.723 C56.852,8.723 56.108,7.876 55.983,7.09 L55.948,6.871 L54.548,7.237 C54.323,7.311 54.185,7.535 54.185,7.768 C54.185,7.884 54.232,7.993 54.232,7.993 C54.82,9.518 56.269,10.43 58.113,10.43 C60.354,10.43 61.92,9.219 61.92,7.488 C61.919,5.506 60.043,4.935 58.673,4.516 Z" id="Path"></path>
                    <path d="M6.833,0.662 L5.555,0.662 L0.605,10.246 L2.381,10.246 C2.613,10.246 2.83,10.117 2.93,9.916 L3.693,8.427 C3.727,8.365 3.794,8.329 3.866,8.329 L8.523,8.329 C8.58,8.329 8.634,8.35 8.671,8.392 L9.475,9.951 C9.584,10.132 9.788,10.246 10.007,10.246 L11.785,10.246 L6.89,0.772 L6.833,0.662 Z M6.194,3.535 L7.741,6.57 L4.647,6.57 L6.194,3.535 Z" id="Shape"></path>
                    <path d="M30.221,3.812 C30.221,1.869 28.719,0.662 26.301,0.662 L23.543,0.662 C23.207,0.662 22.934,0.919 22.934,1.242 L22.934,9.665 C22.934,9.985 23.207,10.246 23.543,10.246 L24.878,10.246 L24.878,2.421 L26.48,2.421 C27.585,2.421 28.221,2.928 28.221,3.813 C28.221,4.698 27.586,5.205 26.48,5.205 L25.303,5.205 L28.402,9.962 C28.406,9.969 28.411,9.975 28.414,9.981 C28.527,10.147 28.72,10.248 28.929,10.248 L30.789,10.248 L28.386,6.584 C29.573,6.067 30.221,5.094 30.221,3.812 Z" id="Path"></path>
                </g>
                <path d="M22.6162504,11.0176103 L15.5754094,11.0176103 C15.3488099,11.0176103 15.1628561,11.1146772 15.0835971,11.2556798 C15.0805487,11.2618103 15.0785164,11.2689626 15.0744519,11.2771367 L14.1639895,13.1295829 L14.1233439,13.2072364 C14.0390042,13.3369996 13.8652441,13.4289578 13.648806,13.4289578 L2.06886309,13.4248708 L3.29026459,11.3159635 C3.29331301,11.3088112 3.29636143,11.2975718 3.30245828,11.2914413 C3.38070114,11.1483952 3.56462266,11.048263 3.79223825,11.048263 L11.6927346,11.0114797 C11.710009,11.0125015 11.7282995,11.0125015 11.7465901,11.0125015 C11.7658967,11.0125015 11.7831711,11.0125015 11.8004455,11.0114797 C12.0016415,10.9971751 12.1601595,10.9031735 12.23637,10.7723885 C12.23637,10.7723885 12.2373862,10.7723885 12.2373862,10.7723885 L12.2546606,10.736627 C12.2556767,10.73254 12.2556767,10.7304965 12.2556767,10.7304965 L13.1549615,8.90461594 C13.1620745,8.89439837 13.1651229,8.88520255 13.1702036,8.87702849 C13.2504788,8.73500421 13.4333841,8.63691549 13.6599836,8.63691549 L20.8247938,8.63998077 C21.0585063,8.63998077 21.2739282,8.73500421 21.4161879,8.91176824 C21.4182202,8.91585527 21.4202525,8.91892054 21.4222848,8.91892054 L22.6162504,11.0176103 L22.6162504,11.0176103 Z M26,17 L23.4383085,12.455223 L23.4068081,12.4153744 C23.4068081,12.4133309 23.405792,12.4123092 23.405792,12.4123092 C23.2808067,12.2692631 23.0684332,12.1742397 22.8418337,12.1742397 L16.4960331,12.1721962 C16.271466,12.1721962 16.091609,12.2641543 16.0093016,12.4061786 L15.9859304,12.4542012 L15.0703873,14.3148215 C15.0653066,14.3229956 15.061242,14.3301479 15.0571775,14.3393437 C14.9769023,14.4823897 14.7929808,14.5815002 14.5663814,14.5815002 L1.73556884,14.5804784 C1.55164732,14.5804784 1.37077422,14.6336098 1.24070817,14.8492006 L0,16.9979565 L26,17 L26,17 Z M18.1746981,3.25736266 L10.5119787,3.25429739 C10.3168797,3.25429739 10.1583617,3.3523861 10.0902802,3.49543214 C10.0851995,3.50462796 10.0821511,3.51280202 10.0801188,3.52404135 L9.01215461,6.03756461 C9.01012233,6.04471691 9.00504162,6.05493449 9.00300934,6.06106503 C8.93391175,6.20615459 8.7764099,6.30219978 8.58029468,6.30219978 L6.23300895,6.30219978 L9.6462266,0.282005049 C9.71227577,0.09911047 9.88705202,0 10.0851995,0 L16.0011725,0 C16.1952554,0 16.3771446,0.0980887126 16.4838394,0.239091237 L16.4858717,0.240112994 C16.4909524,0.248287054 16.5122914,0.277918019 16.5133075,0.282005049 L18.1746981,3.25736266 L18.1746981,3.25736266 Z M20.6114042,7.48539488 L19.0109821,4.67249669 C19.0048853,4.66432263 18.9998046,4.65512682 18.9926916,4.64899627 C18.8829484,4.50492848 18.6908977,4.40683976 18.4866534,4.40683976 L11.2893266,4.40683976 C11.0840661,4.40683976 10.9204674,4.50390672 10.8483214,4.64899627 C10.8432407,4.65614858 10.8391761,4.66534439 10.8361277,4.67249669 L9.74377614,7.14617141 C9.73463087,7.18601995 9.71735647,7.22178146 9.69703365,7.2544777 C9.62285536,7.36993629 9.47856333,7.44963337 9.3068355,7.45678567 C9.29769023,7.45678567 9.28752882,7.45678567 9.2793997,7.45678567 C9.27025443,7.45678567 9.26110916,7.45678567 9.25196389,7.45678567 L5.80724587,7.45678567 C5.62535663,7.45474216 5.45769336,7.55078735 5.36014382,7.71835557 L4.16719428,9.78332732 L11.0678079,9.85382859 C11.213116,9.83645871 11.3330207,9.76595745 11.4041505,9.66582522 L11.4641029,9.52788797 L12.2455153,7.76229114 C12.2455153,7.76024763 12.2455153,7.75922587 12.2475476,7.75922587 C12.2516121,7.74492126 12.2566929,7.73470369 12.2627897,7.7224426 C12.2627897,7.72142084 12.2638058,7.71937733 12.264822,7.71937733 C12.336968,7.57633129 12.5005667,7.48437312 12.7027788,7.48437312 L20.6114042,7.48437312 L20.6114042,7.48539488 Z" id="Shape" fill="#007A60"></path>
            </g>
        </g>
    </g>
</svg>